<svg xmlns="http://www.w3.org/2000/svg" xmlns:xlink="http://www.w3.org/1999/xlink" version="1.0" id="katman_1" x="0px" y="0px" viewBox="0 0 841.89 595.28" style="enable-background:new 0 0 841.89 595.28;" xml:space="preserve">
<style type="text/css">
	.st0{fill:#1d9669;}
</style>
<g>
	<polygon class="st0" points="393.44,390.98 393.44,494.16 392.97,494.16 347.96,468.17 347.96,369.64  "/>
	<polygon class="st0" points="556.53,231.35 420.97,309.61 330.85,257.6 330.85,310.17 385.85,341.91 420.97,362.18 456.08,341.91    556.53,283.92 556.53,439.88 602.06,413.55 602.06,205.06  "/>
	<polygon class="st0" points="493.98,369.64 493.98,467.44 448.45,493.73 448.45,390.98  "/>
	<polygon class="st0" points="602.06,101.12 602.06,153.69 556.53,179.97 456.13,237.92 420.97,258.23 385.81,237.92 285.36,179.97    285.36,432.03 239.83,405.74 239.83,101.12 285.36,127.4 420.97,205.7 556.53,127.4  "/>
</g>
</svg>